<svg width="30" height="31" viewBox="0 0 30 31" fill="none" xmlns="http://www.w3.org/2000/svg">
<path d="M17.75 3.62537C16.2167 3.62537 14.7462 4.2398 13.662 5.33351C12.5778 6.42721 11.9687 7.9106 11.9687 9.45733V12.7043H8.875C8.71967 12.7043 8.59375 12.8313 8.59375 12.988V17.2753C8.59375 17.432 8.71967 17.559 8.875 17.559H11.9687V26.3543C11.9687 26.5109 12.0947 26.638 12.25 26.638H16.5C16.6553 26.638 16.7812 26.5109 16.7812 26.3543V17.559H19.9024C20.0315 17.559 20.144 17.4704 20.1753 17.3441L21.2378 13.0568C21.2821 12.8778 21.1479 12.7043 20.9649 12.7043H16.7812V9.45733C16.7812 9.19815 16.8833 8.94958 17.065 8.76631C17.2467 8.58304 17.4931 8.48008 17.75 8.48008H21C21.1553 8.48008 21.2812 8.35306 21.2812 8.19636V3.90908C21.2812 3.75239 21.1553 3.62537 21 3.62537H17.75Z" fill="#202427"/>
</svg>
