<svg width="30" height="28" viewBox="0 0 30 28" fill="none" xmlns="http://www.w3.org/2000/svg">
<path fill-rule="evenodd" clip-rule="evenodd" d="M8.3172 4.22664C12.6774 3.83339 17.0638 3.83339 21.424 4.22664L23.3044 4.39622C25.1785 4.56525 26.6928 6.00947 26.965 7.8875C27.5778 12.1154 27.5778 16.4107 26.965 20.6387C26.6928 22.5167 25.1785 23.9609 23.3044 24.1299L21.424 24.2995C17.0638 24.6928 12.6774 24.6928 8.3172 24.2995L6.43687 24.1299C4.56271 23.9609 3.04844 22.5167 2.77624 20.6387C2.16345 16.4107 2.16345 12.1154 2.77624 7.8875C3.04844 6.00947 4.56271 4.56525 6.43687 4.39622L8.3172 4.22664ZM7.25628 7.81264C6.96825 7.6562 6.6199 7.66402 6.33905 7.83323C6.05821 8.00243 5.88623 8.30811 5.88623 8.63808V20.5131C5.88623 21.0308 6.30234 21.4506 6.81565 21.4506C7.32895 21.4506 7.74506 21.0308 7.74506 20.5131V10.2077L14.43 13.8385C14.7051 13.9879 15.0362 13.9879 15.3112 13.8385L21.9961 10.2077V20.5131C21.9961 21.0308 22.4123 21.4506 22.9256 21.4506C23.4389 21.4506 23.855 21.0308 23.855 20.5131V8.63808C23.855 8.30811 23.683 8.00243 23.4022 7.83323C23.1213 7.66402 22.773 7.6562 22.4849 7.81264L14.8706 11.9483L7.25628 7.81264Z" fill="#202427"/>
</svg>
