<svg width="30" height="29" viewBox="0 0 30 29" fill="none" xmlns="http://www.w3.org/2000/svg">
<path d="M15.0001 10.1065C12.7564 10.1065 10.9376 11.9096 10.9376 14.134C10.9376 16.3583 12.7564 18.1614 15.0001 18.1614C17.2438 18.1614 19.0626 16.3583 19.0626 14.134C19.0626 11.9096 17.2438 10.1065 15.0001 10.1065Z" fill="#202427"/>
<path fill-rule="evenodd" clip-rule="evenodd" d="M8.46203 3.0819C12.7722 2.60433 17.2281 2.60433 21.5382 3.0819C23.9112 3.34483 25.8252 5.19844 26.1037 7.55922C26.6191 11.9275 26.6191 16.3404 26.1037 20.7087C25.8252 23.0695 23.9112 24.9231 21.5382 25.186C17.2281 25.6636 12.7722 25.6636 8.46203 25.186C6.08903 24.9231 4.17504 23.0695 3.89652 20.7087C3.38117 16.3404 3.38117 11.9275 3.89652 7.55922C4.17504 5.19844 6.08903 3.34483 8.46203 3.0819ZM21.2501 6.69862C20.5597 6.69862 20.0001 7.25344 20.0001 7.93784C20.0001 8.62225 20.5597 9.17706 21.2501 9.17706C21.9405 9.17706 22.5001 8.62225 22.5001 7.93784C22.5001 7.25344 21.9405 6.69862 21.2501 6.69862ZM9.06261 14.134C9.06261 10.883 11.7209 8.24765 15.0001 8.24765C18.2793 8.24765 20.9376 10.883 20.9376 14.134C20.9376 17.3849 18.2793 20.0203 15.0001 20.0203C11.7209 20.0203 9.06261 17.3849 9.06261 14.134Z" fill="#202427"/>
</svg>
