<svg width="30" height="31" viewBox="0 0 30 31" fill="none" xmlns="http://www.w3.org/2000/svg">
<path d="M5.9375 2.6069C4.47049 2.6069 3.28125 3.79615 3.28125 5.26315C3.28125 6.73016 4.47049 7.9194 5.9375 7.9194C7.40451 7.9194 8.59375 6.73016 8.59375 5.26315C8.59375 3.79615 7.40451 2.6069 5.9375 2.6069Z" fill="#202427"/>
<path d="M3.4375 10.1069C3.35121 10.1069 3.28125 10.1769 3.28125 10.2632V26.5132C3.28125 26.5994 3.35121 26.6694 3.4375 26.6694H8.4375C8.52379 26.6694 8.59375 26.5994 8.59375 26.5132V10.2632C8.59375 10.1769 8.52379 10.1069 8.4375 10.1069H3.4375Z" fill="#202427"/>
<path d="M11.5625 10.1069C11.4762 10.1069 11.4062 10.1769 11.4062 10.2632V26.5132C11.4062 26.5994 11.4762 26.6694 11.5625 26.6694H16.5625C16.6488 26.6694 16.7188 26.5994 16.7188 26.5132V17.7632C16.7188 17.1416 16.9657 16.5454 17.4052 16.1059C17.8448 15.6663 18.4409 15.4194 19.0625 15.4194C19.6841 15.4194 20.2802 15.6663 20.7198 16.1059C21.1593 16.5454 21.4062 17.1416 21.4062 17.7632V26.5132C21.4062 26.5994 21.4762 26.6694 21.5625 26.6694H26.5625C26.6488 26.6694 26.7188 26.5994 26.7188 26.5132V15.7385C26.7188 12.705 24.0805 10.3319 21.0623 10.6063C20.1315 10.6909 19.2112 10.9223 18.3518 11.2906L16.7188 11.9905V10.2632C16.7188 10.1769 16.6488 10.1069 16.5625 10.1069H11.5625Z" fill="#202427"/>
</svg>
