<svg width="30" height="26" viewBox="0 0 30 26" fill="none" xmlns="http://www.w3.org/2000/svg">
<path fill-rule="evenodd" clip-rule="evenodd" d="M8.66003 4.37637C12.7934 4.05016 16.9456 4.05016 21.079 4.37637L23.8555 4.5955C25.402 4.71755 26.6672 5.8868 26.9228 7.43026C27.5625 11.2921 27.5625 15.2343 26.9228 19.0962C26.6672 20.6396 25.402 21.8089 23.8555 21.9309L21.079 22.1501C16.9456 22.4763 12.7934 22.4763 8.66003 22.1501L5.88351 21.9309C4.33699 21.8089 3.07181 20.6396 2.81616 19.0962C2.17651 15.2343 2.17651 11.2921 2.81616 7.43026C3.07181 5.8868 4.33699 4.71755 5.88351 4.5955L8.66003 4.37637ZM12.3912 16.3509V10.1755C12.3912 9.88406 12.7064 9.70402 12.9542 9.85398L18.0556 12.9417C18.2962 13.0873 18.2962 13.4391 18.0556 13.5848L12.9542 16.6725C12.7064 16.8224 12.3912 16.6424 12.3912 16.3509Z" fill="#202427"/>
</svg>
