<svg width="94" height="52" viewBox="0 0 94 52" fill="none" xmlns="http://www.w3.org/2000/svg">
<path d="M11.5338 12.2613V7.11231C11.2004 7.07308 10.6708 7.05346 9.945 7.05346C9.33692 7.05346 8.95442 7.16135 8.7975 7.37711C8.66019 7.59288 8.59154 7.95577 8.59154 8.46577V13.3206C8.59154 13.7913 8.62096 14.1346 8.67981 14.3504C8.73865 14.5465 8.90538 14.6937 9.18 14.7917C9.45462 14.8898 9.89596 14.9388 10.504 14.9388L18.3894 14.9094V20.6469C17.546 20.8431 16.2415 21 14.4762 21.1177C12.7304 21.255 11.1906 21.3237 9.85673 21.3237C7.44404 21.3237 5.59038 21.0687 4.29577 20.5587C3.02077 20.0487 2.11846 19.2346 1.58885 18.1165C1.07885 16.9788 0.823846 15.39 0.823846 13.35V8.58346C0.823846 6.58269 1.08865 5.03308 1.61827 3.93461C2.14788 2.81654 3.05019 2.01231 4.32519 1.52192C5.61981 1.01192 7.46365 0.756923 9.85673 0.756923C11.0925 0.756923 12.5833 0.874615 14.329 1.11C16.0944 1.32577 17.4969 1.60038 18.5365 1.93385V12.2613H11.5338ZM30.0182 4.81731C30.4301 4.81731 30.7244 4.82712 30.9009 4.84673V11.6435L29.6946 11.614C28.8707 11.614 28.1155 11.9083 27.429 12.4967V21H20.338V5.11154H25.5459L26.3109 6.67096C27.5074 5.43519 28.7432 4.81731 30.0182 4.81731ZM32.1146 11.261C32.1146 9.55442 32.3304 8.25 32.7619 7.34769C33.2131 6.44538 34.0173 5.79808 35.1746 5.40577C36.3515 4.99385 38.0679 4.78788 40.3236 4.78788C42.6186 4.78788 44.3546 4.99385 45.5315 5.40577C46.7281 5.79808 47.5519 6.44538 48.0031 7.34769C48.4542 8.25 48.6798 9.55442 48.6798 11.261V14.88C48.6798 16.5669 48.4542 17.8615 48.0031 18.7638C47.5519 19.6662 46.7281 20.3135 45.5315 20.7058C44.3546 21.0981 42.6088 21.2942 40.2942 21.2942C38.0581 21.2942 36.3613 21.0981 35.204 20.7058C34.0467 20.3135 33.2425 19.6662 32.7913 18.7638C32.3402 17.8615 32.1146 16.5669 32.1146 14.88V11.261ZM39.1761 14.9388C39.1761 15.3115 39.2448 15.5862 39.3821 15.7627C39.539 15.9392 39.8823 16.0275 40.4119 16.0275C40.9219 16.0275 41.2456 15.949 41.3829 15.7921C41.5398 15.6156 41.6183 15.341 41.6183 14.9683V11.1433C41.6183 10.751 41.5398 10.4763 41.3829 10.3194C41.2456 10.1429 40.9219 10.0546 40.4119 10.0546C39.8823 10.0546 39.539 10.1429 39.3821 10.3194C39.2448 10.496 39.1761 10.7706 39.1761 11.1433V14.9388ZM69.4116 5.14096H76.6202L73.4425 21H63.9683L63.2033 10.496H62.556L61.8204 21H52.3462L49.0802 5.14096H56.2595L57.2893 15.6156H57.9366L58.9958 5.14096H66.7046L67.8521 15.6156H68.47L69.4116 5.14096ZM93.5608 1.16885V21H88.3529L87.6762 19.9996C85.8716 20.8627 84.1748 21.2942 82.586 21.2942C80.6833 21.2942 79.271 20.7842 78.3491 19.7642C77.4271 18.7246 76.9662 17.1848 76.9662 15.1448V11.055C76.9662 9.11308 77.4467 7.59288 78.4079 6.49442C79.3691 5.37635 81.0658 4.81731 83.4981 4.81731C84.5573 4.81731 85.5479 4.84673 86.4698 4.90558V1.16885H93.5608ZM84.0277 14.7035C84.0277 15.0762 84.0964 15.3606 84.2337 15.5567C84.371 15.7333 84.6162 15.8215 84.9692 15.8215C85.4204 15.8215 85.9206 15.6842 86.4698 15.4096V10.2312C86.0579 10.1135 85.6558 10.0546 85.2635 10.0546C84.7927 10.0546 84.4691 10.1331 84.2925 10.29C84.116 10.4469 84.0277 10.6921 84.0277 11.0256V14.7035ZM9.5625 26.1688C12.6225 26.1688 14.8096 26.316 16.1238 26.6102C17.4381 26.9044 18.3502 27.5713 18.8602 28.611C19.3898 29.631 19.6546 31.3277 19.6546 33.7012V38.3794C19.6546 40.7333 19.4192 42.4202 18.9485 43.4402C18.4777 44.4602 17.5656 45.1467 16.2121 45.4998C14.8783 45.8333 12.6715 46 9.59192 46H1.17692V26.1688H9.5625ZM11.8575 33.6423C11.8575 33.0931 11.7496 32.7204 11.5338 32.5242C11.3377 32.3085 10.9356 32.2006 10.3275 32.2006H8.85635V39.9683H10.3275C10.8767 39.9683 11.269 39.8702 11.5044 39.674C11.7398 39.4779 11.8575 39.0856 11.8575 38.4971V33.6423ZM21.2821 36.261C21.2821 34.5544 21.4978 33.25 21.9294 32.3477C22.3805 31.4454 23.1848 30.7981 24.3421 30.4058C25.519 29.9938 27.2353 29.7879 29.4911 29.7879C31.7861 29.7879 33.5221 29.9938 34.699 30.4058C35.8955 30.7981 36.7194 31.4454 37.1705 32.3477C37.6217 33.25 37.8473 34.5544 37.8473 36.261V39.88C37.8473 41.5669 37.6217 42.8615 37.1705 43.7638C36.7194 44.6662 35.8955 45.3135 34.699 45.7058C33.5221 46.0981 31.7763 46.2942 29.4617 46.2942C27.2255 46.2942 25.5288 46.0981 24.3715 45.7058C23.2142 45.3135 22.41 44.6662 21.9588 43.7638C21.5077 42.8615 21.2821 41.5669 21.2821 39.88V36.261ZM28.3436 39.9388C28.3436 40.3115 28.4123 40.5862 28.5496 40.7627C28.7065 40.9392 29.0498 41.0275 29.5794 41.0275C30.0894 41.0275 30.413 40.949 30.5503 40.7921C30.7073 40.6156 30.7857 40.341 30.7857 39.9683V36.1433C30.7857 35.751 30.7073 35.4763 30.5503 35.3194C30.413 35.1429 30.0894 35.0546 29.5794 35.0546C29.0498 35.0546 28.7065 35.1429 28.5496 35.3194C28.4123 35.496 28.3436 35.7706 28.3436 36.1433V39.9388ZM39.6756 30.1115H46.7666V46H39.6756V30.1115ZM46.796 25.1096V29.1112H39.6756V25.1096H46.796ZM59.9068 29.7879C61.8095 29.7879 63.1825 30.2881 64.026 31.2885C64.8695 32.2888 65.2912 33.7698 65.2912 35.7313V46H58.2002V36.7023C58.2002 36.0354 57.9746 35.7019 57.5235 35.7019C57.0331 35.7019 56.4741 35.8883 55.8464 36.261V46H48.7554V30.141H53.9633L54.6695 31.5533C56.631 30.3763 58.3768 29.7879 59.9068 29.7879ZM73.8813 29.7879C77.471 29.7879 80.7173 30.2096 83.6204 31.0531V45.7352C83.6204 47.5987 82.9633 48.9815 81.649 49.8838C80.3544 50.7862 78.334 51.2373 75.5879 51.2373C74.411 51.2373 73.44 51.2079 72.675 51.149C71.91 51.1098 70.9685 51.0313 69.8504 50.9137C69.2423 50.8744 68.8108 50.8352 68.5558 50.796L68.5852 45.6175C69.7621 45.7548 72.0081 45.8235 75.3231 45.8235C76.1273 45.8235 76.5294 45.441 76.5294 44.676V43.6756C75.2348 44.3033 73.9108 44.6171 72.5573 44.6171C70.6154 44.6171 69.2031 44.1365 68.3204 43.1754C67.4573 42.1946 67.0258 40.694 67.0258 38.6737V36.0256C67.0258 34.5152 67.2415 33.3088 67.6731 32.4065C68.1242 31.5042 68.85 30.8471 69.8504 30.4352C70.8508 30.0037 72.1944 29.7879 73.8813 29.7879ZM74.0873 38.4971C74.0873 38.8306 74.1462 39.0954 74.2638 39.2915C74.4012 39.4681 74.666 39.5563 75.0583 39.5563C75.4898 39.5563 75.9802 39.4092 76.5294 39.115V35.2312C76.0979 35.1135 75.6762 35.0546 75.2642 35.0546C74.7738 35.0546 74.4502 35.1527 74.2933 35.3488C74.156 35.545 74.0873 35.7804 74.0873 36.055V38.4971Z" fill="#6C733D"/>
</svg>
